<svg width="32" height="28" viewBox="0 0 32 28" fill="none" xmlns="http://www.w3.org/2000/svg">
<g filter="url(#filter0_d_571_3368)">
<g clip-path="url(#clip0_571_3368)">
<rect x="8" y="6" width="16" height="12" fill="#E1E7FE"/>
<g clip-path="url(#clip1_571_3368)">
<mask id="mask0_571_3368" style="mask-type:alpha" maskUnits="userSpaceOnUse" x="8" y="6" width="16" height="12">
<path d="M22.4762 6H9.52381C8.68223 6 8 6.71634 8 7.6V16.4C8 17.2837 8.68223 18 9.52381 18H22.4762C23.3178 18 24 17.2837 24 16.4V7.6C24 6.71634 23.3178 6 22.4762 6Z" fill="white"/>
</mask>
<g mask="url(#mask0_571_3368)">
<path d="M22.4762 6H9.52381C8.68223 6 8 6.71634 8 7.6V16.4C8 17.2837 8.68223 18 9.52381 18H22.4762C23.3178 18 24 17.2837 24 16.4V7.6C24 6.71634 23.3178 6 22.4762 6Z" fill="white"/>
<path fill-rule="evenodd" clip-rule="evenodd" d="M8 6H13.3333V18H8V6Z" fill="#009342"/>
<path fill-rule="evenodd" clip-rule="evenodd" d="M18.6667 6H24V18H18.6667V6Z" fill="#D02832"/>
</g>
</g>
</g>
</g>
<defs>
<filter id="filter0_d_571_3368" x="0" y="0" width="32" height="28" filterUnits="userSpaceOnUse" color-interpolation-filters="sRGB">
<feFlood flood-opacity="0" result="BackgroundImageFix"/>
<feColorMatrix in="SourceAlpha" type="matrix" values="0 0 0 0 0 0 0 0 0 0 0 0 0 0 0 0 0 0 127 0" result="hardAlpha"/>
<feOffset dy="2"/>
<feGaussianBlur stdDeviation="4"/>
<feColorMatrix type="matrix" values="0 0 0 0 0 0 0 0 0 0 0 0 0 0 0 0 0 0 0.06 0"/>
<feBlend mode="normal" in2="BackgroundImageFix" result="effect1_dropShadow_571_3368"/>
<feBlend mode="normal" in="SourceGraphic" in2="effect1_dropShadow_571_3368" result="shape"/>
</filter>
<clipPath id="clip0_571_3368">
<rect x="8" y="6" width="16" height="12" rx="6" fill="white"/>
</clipPath>
<clipPath id="clip1_571_3368">
<rect width="16" height="12" fill="white" transform="translate(8 6)"/>
</clipPath>
</defs>
</svg>
